<?xml version="1.0" encoding="UTF-8"?>
<!DOCTYPE svg PUBLIC "-//W3C//DTD SVG 1.1//EN" "http://www.w3.org/Graphics/SVG/1.1/DTD/svg11.dtd">
<svg xmlns="http://www.w3.org/2000/svg" version="1.1" width="162px" height="162px" style="shape-rendering:geometricPrecision; text-rendering:geometricPrecision; image-rendering:optimizeQuality; fill-rule:evenodd; clip-rule:evenodd" xmlns:xlink="http://www.w3.org/1999/xlink">
<g><path style="opacity:0.05" fill="#f6f6f6" d="M 48.5,-0.5 C 50.5,-0.5 52.5,-0.5 54.5,-0.5C 53.8333,0.166667 53.1667,0.833333 52.5,1.5C 50.8439,2.14647 49.1772,2.81313 47.5,3.5C 43.55,1.99908 39.8833,2.33241 36.5,4.5C 34.6203,4.22911 33.287,4.89578 32.5,6.5C 30.5,6.5 29.5,7.5 29.5,9.5C 27.0279,10.9616 24.3612,12.1283 21.5,13C 20.1772,13.8159 19.5106,14.9826 19.5,16.5C 18.065,18.5976 16.8984,20.9309 16,23.5C 12.5952,25.402 10.0952,28.0687 8.5,31.5C 5.96451,35.3548 4.96451,39.6882 5.5,44.5C 2.82115,48.6733 3.15449,52.8399 6.5,57C 5.53335,61.4014 5.20001,65.9014 5.5,70.5C 4.44415,83.8321 7.94415,95.8321 16,106.5C 17.1871,114.033 18.6871,121.366 20.5,128.5C 20.5902,132.214 21.5902,135.548 23.5,138.5C 23.2222,140.346 23.8888,141.68 25.5,142.5C 25.7611,140.405 26.0945,138.405 26.5,136.5C 27.3382,136.842 27.6716,137.508 27.5,138.5C 27.8449,141.198 29.1782,143.198 31.5,144.5C 32.5,144.833 33.1667,145.5 33.5,146.5C 34.9147,148.917 36.5813,149.417 38.5,148C 36.6017,143.992 35.7684,139.826 36,135.5C 36.5573,137.615 37.3906,139.615 38.5,141.5C 39.5,142.833 40.5,142.833 41.5,141.5C 40.1272,134.231 39.6272,126.898 40,119.5C 44.0738,121.192 48.2405,122.692 52.5,124C 51.269,125.183 51.269,126.349 52.5,127.5C 54.7354,126.248 57.0687,125.748 59.5,126C 55.5455,127.311 51.8788,129.144 48.5,131.5C 47.6072,134.084 47.2739,136.751 47.5,139.5C 43.0897,146.322 39.7564,153.656 37.5,161.5C 36.8333,161.5 36.1667,161.5 35.5,161.5C 35.9985,158.171 36.9985,155.005 38.5,152C 33.8045,151.308 30.1378,148.975 27.5,145C 25.7444,144.798 24.0777,144.298 22.5,143.5C 18.0791,131.9 15.2458,119.9 14,107.5C 3.93903,92.7284 0.439035,76.5617 3.5,59C 0.94435,48.1608 2.11102,37.6608 7,27.5C 9.47938,24.931 12.146,22.5977 15,20.5C 15.4379,17.624 16.4379,14.9573 18,12.5C 20.6419,10.7624 23.4753,9.42907 26.5,8.5C 28.4172,5.41668 31.0838,3.25001 34.5,2C 39.2716,1.01677 43.9382,0.183439 48.5,-0.5 Z M 41.5,123.5 C 44.6864,123.613 47.3531,124.78 49.5,127C 48.4647,128.274 47.298,129.44 46,130.5C 45.7031,133.914 45.0365,137.247 44,140.5C 42.6745,134.991 41.8411,129.325 41.5,123.5 Z"/></g>
<g><path style="opacity:0.298" fill="#fdfcf9" d="M 85.5,-0.5 C 87.5,-0.5 89.5,-0.5 91.5,-0.5C 92.5736,0.884606 93.9069,2.05127 95.5,3C 103.788,3.14406 110.455,6.47739 115.5,13C 120.921,12.3307 125.087,14.164 128,18.5C 128.333,14.1667 128.667,9.83333 129,5.5C 130.332,3.34004 131.832,1.34004 133.5,-0.5C 139.833,-0.5 146.167,-0.5 152.5,-0.5C 156.254,3.18277 157.92,7.68277 157.5,13C 156.501,25.489 155.667,37.989 155,50.5C 155.844,57.6645 153.01,62.4979 146.5,65C 156.481,68.9492 159.314,75.7825 155,85.5C 149.334,91.7602 142.667,93.0935 135,89.5C 134.927,113.538 134.094,137.538 132.5,161.5C 131.833,161.5 131.167,161.5 130.5,161.5C 132.265,135.872 132.932,110.206 132.5,84.5C 132.815,80.6286 132.482,76.9619 131.5,73.5C 131.335,70.1501 131.502,66.8168 132,63.5C 132.681,65.8947 133.515,68.228 134.5,70.5C 135.107,70.3764 135.44,70.0431 135.5,69.5C 136.492,69.6716 137.158,69.3382 137.5,68.5C 140.167,66.1667 140.167,63.8333 137.5,61.5C 134.816,59.1293 133.482,56.1293 133.5,52.5C 133.5,50.5 133.5,48.5 133.5,46.5C 131.74,40.7097 130.573,34.7097 130,28.5C 129.33,25.8261 128.163,23.4927 126.5,21.5C 123.876,15.7655 119.542,14.0988 113.5,16.5C 112.864,14.2054 111.531,12.5387 109.5,11.5C 108.738,9.73758 107.404,8.73758 105.5,8.5C 105.158,7.66175 104.492,7.32842 103.5,7.5C 100.308,5.87251 96.9744,5.03917 93.5,5C 91.2537,2.39055 88.587,0.557217 85.5,-0.5 Z"/></g>
<g><path style="opacity:1" fill="#f1eeef" d="M 103.5,7.5 C 104.492,7.32842 105.158,7.66175 105.5,8.5C 106.262,10.2624 107.596,11.2624 109.5,11.5C 110.08,13.7488 111.413,15.4154 113.5,16.5C 115.757,18.4111 118.09,20.4111 120.5,22.5C 120.5,24.8333 120.5,27.1667 120.5,29.5C 111.743,23.2909 102.076,18.9576 91.5,16.5C 92.7427,10.4196 91.7427,10.0863 88.5,15.5C 77.4205,13.3755 66.4205,13.0421 55.5,14.5C 54.5,14.5 53.5,14.5 52.5,14.5C 52.719,13.325 52.3857,12.325 51.5,11.5C 51.1667,11.8333 50.8333,12.1667 50.5,12.5C 51.1272,13.4168 51.4606,14.4168 51.5,15.5C 47.3266,15.6667 43.6599,17 40.5,19.5C 37.9741,21.4543 35.3075,23.121 32.5,24.5C 29.9108,25.4194 27.9108,27.086 26.5,29.5C 25.1779,29.67 24.0113,29.3366 23,28.5C 22.805,29.8193 22.9717,31.1526 23.5,32.5C 21.1,34.2964 19.4333,36.6298 18.5,39.5C 14.4146,45.0795 12.0813,51.4129 11.5,58.5C 10.4186,63.4864 9.41856,68.4864 8.5,73.5C 8.12487,71.3024 7.4582,69.3024 6.5,67.5C 6.28446,63.9408 6.6178,60.4408 7.5,57C 4.6888,53.1207 4.02213,48.954 5.5,44.5C 6.402,40.2448 7.402,35.9115 8.5,31.5C 11.1951,28.8085 14.1951,26.4752 17.5,24.5C 18.7946,21.9881 19.4613,19.3214 19.5,16.5C 21.9958,14.2311 24.9958,12.8977 28.5,12.5C 29.1272,11.5832 29.4606,10.5832 29.5,9.5C 30.8333,8.83333 31.8333,7.83333 32.5,6.5C 34.153,6.3404 35.4863,5.67373 36.5,4.5C 40.5705,4.23383 44.5705,4.56716 48.5,5.5C 50.188,4.4787 51.5213,3.14537 52.5,1.5C 58.4676,-0.123454 64.3009,0.209879 70,2.5C 78.236,-0.967344 85.736,0.199322 92.5,6C 96.0601,7.23674 99.7267,7.73674 103.5,7.5 Z"/></g>
<g><path style="opacity:0.91" fill="#787778" d="M 52.5,1.5 C 51.5213,3.14537 50.188,4.4787 48.5,5.5C 44.5705,4.56716 40.5705,4.23383 36.5,4.5C 39.8833,2.33241 43.55,1.99908 47.5,3.5C 49.1772,2.81313 50.8439,2.14647 52.5,1.5 Z"/></g>
<g><path style="opacity:1" fill="#f3d777" d="M 139.5,1.5 C 147.639,1.2125 151.973,5.04583 152.5,13C 151.667,27.1655 150.833,41.3322 150,55.5C 145.283,62.1517 140.617,62.1517 136,55.5C 134.667,39.5139 134.001,23.5139 134,7.5C 135.36,4.97739 137.193,2.97739 139.5,1.5 Z"/></g>
<g><path style="opacity:0.906" fill="#626161" d="M 36.5,4.5 C 35.4863,5.67373 34.153,6.3404 32.5,6.5C 33.287,4.89578 34.6203,4.22911 36.5,4.5 Z"/></g>
<g><path style="opacity:0.906" fill="#6c6c6c" d="M 54.5,-0.5 C 64.8333,-0.5 75.1667,-0.5 85.5,-0.5C 88.587,0.557217 91.2537,2.39055 93.5,5C 96.9744,5.03917 100.308,5.87251 103.5,7.5C 99.7267,7.73674 96.0601,7.23674 92.5,6C 85.736,0.199322 78.236,-0.967344 70,2.5C 64.3009,0.209879 58.4676,-0.123454 52.5,1.5C 53.1667,0.833333 53.8333,0.166667 54.5,-0.5 Z"/></g>
<g><path style="opacity:0.843" fill="#616161" d="M 32.5,6.5 C 31.8333,7.83333 30.8333,8.83333 29.5,9.5C 29.5,7.5 30.5,6.5 32.5,6.5 Z"/></g>
<g><path style="opacity:0.455" fill="#656565" d="M 105.5,8.5 C 107.404,8.73758 108.738,9.73758 109.5,11.5C 107.596,11.2624 106.262,10.2624 105.5,8.5 Z"/></g>
<g><path style="opacity:0.898" fill="#696869" d="M 29.5,9.5 C 29.4606,10.5832 29.1272,11.5832 28.5,12.5C 24.9958,12.8977 21.9958,14.2311 19.5,16.5C 19.5106,14.9826 20.1772,13.8159 21.5,13C 24.3612,12.1283 27.0279,10.9616 29.5,9.5 Z"/></g>
<g><path style="opacity:1" fill="#8b8a8b" d="M 55.5,14.5 C 54.4324,15.4345 53.099,15.7678 51.5,15.5C 51.4606,14.4168 51.1272,13.4168 50.5,12.5C 50.8333,12.1667 51.1667,11.8333 51.5,11.5C 52.3857,12.325 52.719,13.325 52.5,14.5C 53.5,14.5 54.5,14.5 55.5,14.5 Z"/></g>
<g><path style="opacity:0.906" fill="#706f70" d="M 109.5,11.5 C 111.531,12.5387 112.864,14.2054 113.5,16.5C 111.413,15.4154 110.08,13.7488 109.5,11.5 Z"/></g>
<g><path style="opacity:1" fill="#92908a" d="M 120.5,29.5 C 120.5,30.1667 120.5,30.8333 120.5,31.5C 107.256,21.4175 92.2563,16.0842 75.5,15.5C 68.8772,14.6204 62.2105,14.287 55.5,14.5C 66.4205,13.0421 77.4205,13.3755 88.5,15.5C 91.7427,10.0863 92.7427,10.4196 91.5,16.5C 102.076,18.9576 111.743,23.2909 120.5,29.5 Z"/></g>
<g><path style="opacity:0.937" fill="#66645c" d="M 126.5,21.5 C 124.359,19.0323 121.692,17.3656 118.5,16.5C 117.833,16.6667 117.167,16.8333 116.5,17C 117.705,18.3756 119.038,19.5423 120.5,20.5C 120.5,21.1667 120.5,21.8333 120.5,22.5C 118.09,20.4111 115.757,18.4111 113.5,16.5C 119.542,14.0988 123.876,15.7655 126.5,21.5 Z"/></g>
<g><path style="opacity:1" fill="#706b5e" d="M 51.5,15.5 C 48.0497,17.2078 44.383,18.5412 40.5,19.5C 43.6599,17 47.3266,15.6667 51.5,15.5 Z"/></g>
<g><path style="opacity:1" fill="#f1d776" d="M 55.5,14.5 C 62.2105,14.287 68.8772,14.6204 75.5,15.5C 100.54,18.8713 119.874,31.2046 133.5,52.5C 133.482,56.1293 134.816,59.1293 137.5,61.5C 137.5,63.8333 137.5,66.1667 137.5,68.5C 137.158,69.3382 136.492,69.6716 135.5,69.5C 133.047,62.9733 130.88,56.3067 129,49.5C 130.094,57.4085 130.594,65.4085 130.5,73.5C 130.5,73.8333 130.5,74.1667 130.5,74.5C 129.599,75.2905 128.932,76.2905 128.5,77.5C 127.442,78.6002 126.608,79.9336 126,81.5C 125.855,96.5314 125.188,111.531 124,126.5C 123.667,127.167 123.333,127.833 123,128.5C 122.781,127.062 122.281,125.729 121.5,124.5C 119.576,131.679 116.576,138.345 112.5,144.5C 112.167,145.167 111.833,145.833 111.5,146.5C 110.883,146.611 110.383,146.944 110,147.5C 108.367,139.95 106.867,132.283 105.5,124.5C 105.803,122.886 106.47,121.552 107.5,120.5C 119.612,117.281 123.612,109.615 119.5,97.5C 120.426,93.8697 121.093,90.203 121.5,86.5C 123.141,85.1295 124.141,83.2961 124.5,81C 124.018,78.1807 123.018,75.6807 121.5,73.5C 120.025,69.2165 118.025,65.2165 115.5,61.5C 115.666,57.4862 115.499,53.4862 115,49.5C 114.577,48.0439 113.744,47.5439 112.5,48C 114.69,53.0276 115.023,58.1943 113.5,63.5C 112.441,66.6179 111.108,69.6179 109.5,72.5C 108.765,66.8965 107.098,61.5631 104.5,56.5C 104.519,53.3407 103.352,50.674 101,48.5C 100.536,49.0944 100.369,49.7611 100.5,50.5C 100.663,52.8568 100.497,55.1902 100,57.5C 98.103,55.9837 95.9363,55.317 93.5,55.5C 90.0384,46.585 85.0384,38.585 78.5,31.5C 76.8385,43.8165 73.1718,55.4832 67.5,66.5C 66.8333,66.5 66.5,66.8333 66.5,67.5C 65.8333,67.5 65.5,67.1667 65.5,66.5C 65.5,65.8333 65.5,65.1667 65.5,64.5C 66.9238,62.4855 67.5905,60.1522 67.5,57.5C 68.984,53.7393 69.984,49.7393 70.5,45.5C 70.1667,45.1667 69.8333,44.8333 69.5,44.5C 65.1916,55.1206 59.8583,65.1206 53.5,74.5C 52.8333,74.5 52.1667,74.5 51.5,74.5C 51.9731,70.7553 52.3064,66.7553 52.5,62.5C 52.5,62.1667 52.5,61.8333 52.5,61.5C 53.3092,59.9724 53.9759,58.3057 54.5,56.5C 56.144,57.3657 57.8107,57.8657 59.5,58C 57.8783,56.7049 56.545,55.2049 55.5,53.5C 57.8289,44.8762 60.6623,36.5428 64,28.5C 58.8461,36.4537 55.3461,45.1204 53.5,54.5C 52.5592,56.0495 51.8925,57.7162 51.5,59.5C 49.412,61.3356 48.0787,63.6689 47.5,66.5C 45.5491,67.7158 44.0491,69.3825 43,71.5C 43.2797,65.1617 44.113,58.8284 45.5,52.5C 47.1676,48.6619 48.3343,44.6619 49,40.5C 46.2827,44.0302 44.7827,48.0302 44.5,52.5C 43.1074,56.2857 41.4407,59.9523 39.5,63.5C 38.6249,59.1793 38.2915,54.846 38.5,50.5C 36.8746,56.0432 36.2079,61.7099 36.5,67.5C 36.5,69.5 36.5,71.5 36.5,73.5C 30.7953,76.9194 28.962,81.9194 31,88.5C 32.0545,91.0559 33.8878,92.7225 36.5,93.5C 36.5533,104.024 37.2199,114.357 38.5,124.5C 38.6657,128.846 38.499,133.179 38,137.5C 36.0852,130.933 34.5852,124.266 33.5,117.5C 32.2005,127.379 33.2005,137.046 36.5,146.5C 35.7666,147.087 34.7666,147.087 33.5,146.5C 33.1667,145.5 32.5,144.833 31.5,144.5C 30.6597,142.147 29.3264,140.147 27.5,138.5C 27.6716,137.508 27.3382,136.842 26.5,136.5C 26.1743,133.689 25.3409,131.022 24,128.5C 23.51,129.793 23.3433,131.127 23.5,132.5C 23.631,133.239 23.4643,133.906 23,134.5C 22.4338,132.277 21.6005,130.277 20.5,128.5C 19.9377,120.438 18.9377,112.438 17.5,104.5C 17.5,95.1667 17.5,85.8333 17.5,76.5C 18.3941,69.1704 18.8941,61.837 19,54.5C 17.3848,61.7799 16.2182,69.1133 15.5,76.5C 13.5695,76.2294 12.2362,75.2294 11.5,73.5C 11.5,71.1667 11.5,68.8333 11.5,66.5C 11.5,66.1667 11.5,65.8333 11.5,65.5C 12.6437,61.0284 13.477,56.3617 14,51.5C 15.7913,47.5885 17.2913,43.5885 18.5,39.5C 19.4333,36.6298 21.1,34.2964 23.5,32.5C 24.8333,31.8333 25.8333,30.8333 26.5,29.5C 29.0892,28.5806 31.0892,26.914 32.5,24.5C 35.3075,23.121 37.9741,21.4543 40.5,19.5C 44.383,18.5412 48.0497,17.2078 51.5,15.5C 53.099,15.7678 54.4324,15.4345 55.5,14.5 Z M 41.5,123.5 C 41.8411,129.325 42.6745,134.991 44,140.5C 45.0365,137.247 45.7031,133.914 46,130.5C 47.298,129.44 48.4647,128.274 49.5,127C 47.3531,124.78 44.6864,123.613 41.5,123.5 Z"/></g>
<g><path style="opacity:0.906" fill="#787777" d="M 19.5,16.5 C 19.4613,19.3214 18.7946,21.9881 17.5,24.5C 14.1951,26.4752 11.1951,28.8085 8.5,31.5C 10.0952,28.0687 12.5952,25.402 16,23.5C 16.8984,20.9309 18.065,18.5976 19.5,16.5 Z"/></g>
<g><path style="opacity:1" fill="#f1d774" d="M 120.5,20.5 C 125.903,24.3418 128.236,29.6752 127.5,36.5C 122.364,33.2052 120.031,28.5386 120.5,22.5C 120.5,21.8333 120.5,21.1667 120.5,20.5 Z"/></g>
<g><path style="opacity:1" fill="#9c8b4e" d="M 32.5,24.5 C 31.0892,26.914 29.0892,28.5806 26.5,29.5C 27.9108,27.086 29.9108,25.4194 32.5,24.5 Z"/></g>
<g><path style="opacity:1" fill="#777267" d="M 26.5,29.5 C 25.8333,30.8333 24.8333,31.8333 23.5,32.5C 22.9717,31.1526 22.805,29.8193 23,28.5C 24.0113,29.3366 25.1779,29.67 26.5,29.5 Z"/></g>
<g><path style="opacity:1" fill="#f4f2df" d="M 126.5,21.5 C 127.749,26.0748 128.749,30.7415 129.5,35.5C 129.608,38.8664 128.942,39.1997 127.5,36.5C 128.236,29.6752 125.903,24.3418 120.5,20.5C 119.038,19.5423 117.705,18.3756 116.5,17C 117.167,16.8333 117.833,16.6667 118.5,16.5C 121.692,17.3656 124.359,19.0323 126.5,21.5 Z"/></g>
<g><path style="opacity:1" fill="#f5e9b4" d="M 68.5,26.5 C 69.0431,26.56 69.3764,26.8933 69.5,27.5C 68.352,30.2895 67.0186,32.9561 65.5,35.5C 65.1667,35.1667 64.8333,34.8333 64.5,34.5C 65.8466,31.8068 67.1799,29.1401 68.5,26.5 Z"/></g>
<g><path style="opacity:1" fill="#a98f43" d="M 34.5,27.5 C 35.2389,27.369 35.9056,27.5357 36.5,28C 28.5895,34.5712 23.0895,42.7378 20,52.5C 19.4945,48.486 20.4945,44.8194 23,41.5C 26.2898,36.3778 30.1231,31.7112 34.5,27.5 Z"/></g>
<g><path style="opacity:1" fill="#f4f1d5" d="M 75.5,15.5 C 92.2563,16.0842 107.256,21.4175 120.5,31.5C 125.236,36.2299 129.569,41.2299 133.5,46.5C 133.5,48.5 133.5,50.5 133.5,52.5C 119.874,31.2046 100.54,18.8713 75.5,15.5 Z"/></g>
<g><path style="opacity:1" fill="#857359" d="M 93.5,55.5 C 93.5,56.8333 93.5,58.1667 93.5,59.5C 91.8941,58.6409 90.2275,58.4742 88.5,59C 90.7969,57.7367 91.6302,55.9034 91,53.5C 88.0194,46.2028 84.0194,39.5362 79,33.5C 78.505,45.7907 74.6716,56.7907 67.5,66.5C 73.1718,55.4832 76.8385,43.8165 78.5,31.5C 85.0384,38.585 90.0384,46.585 93.5,55.5 Z"/></g>
<g><path style="opacity:0.937" fill="#696868" d="M 8.5,31.5 C 7.402,35.9115 6.402,40.2448 5.5,44.5C 4.96451,39.6882 5.96451,35.3548 8.5,31.5 Z"/></g>
<g><path style="opacity:1" fill="#787567" d="M 126.5,21.5 C 128.163,23.4927 129.33,25.8261 130,28.5C 130.573,34.7097 131.74,40.7097 133.5,46.5C 129.569,41.2299 125.236,36.2299 120.5,31.5C 120.5,30.8333 120.5,30.1667 120.5,29.5C 120.5,27.1667 120.5,24.8333 120.5,22.5C 120.031,28.5386 122.364,33.2052 127.5,36.5C 128.942,39.1997 129.608,38.8664 129.5,35.5C 128.749,30.7415 127.749,26.0748 126.5,21.5 Z"/></g>
<g><path style="opacity:1" fill="#f9e3d8" d="M 93.5,59.5 C 93.7563,63.8618 93.923,68.1951 94,72.5C 86.197,76.7776 84.5303,82.7776 89,90.5C 94.3637,96.0612 100.864,97.8945 108.5,96C 115.59,93.592 118.424,88.7586 117,81.5C 115.719,78.0584 113.553,75.3917 110.5,73.5C 111.941,70.2765 113.608,67.2765 115.5,64.5C 116.907,66.3083 118.074,68.3083 119,70.5C 118.875,83.8535 118.875,97.1868 119,110.5C 116.206,115.134 112.373,118.467 107.5,120.5C 97.3765,123.41 87.0431,125.243 76.5,126C 74.8728,131.528 71.5394,132.862 66.5,130C 66.0418,127.602 64.7085,125.936 62.5,125C 54.2042,123.401 46.2042,120.901 38.5,117.5C 37.8836,109.802 37.8836,102.135 38.5,94.5C 42.0938,95.4259 45.7604,95.7592 49.5,95.5C 58.9474,94.3814 63.2807,89.048 62.5,79.5C 62.6716,78.5084 62.3382,77.8417 61.5,77.5C 60.1879,75.5212 58.5212,73.8545 56.5,72.5C 60.5075,66.4884 64.0075,60.155 67,53.5C 67.49,54.7932 67.6567,56.1266 67.5,57.5C 66.0762,59.5145 65.4095,61.8478 65.5,64.5C 65.5,65.1667 65.5,65.8333 65.5,66.5C 64.2206,68.1233 62.8872,69.79 61.5,71.5C 64.124,71.9232 65.7907,70.5899 66.5,67.5C 66.5,66.8333 66.8333,66.5 67.5,66.5C 74.6716,56.7907 78.505,45.7907 79,33.5C 84.0194,39.5362 88.0194,46.2028 91,53.5C 91.6302,55.9034 90.7969,57.7367 88.5,59C 90.2275,58.4742 91.8941,58.6409 93.5,59.5 Z"/></g>
<g><path style="opacity:1" fill="#ad9447" d="M 54.5,56.5 C 54.6716,55.5084 54.3382,54.8417 53.5,54.5C 55.3461,45.1204 58.8461,36.4537 64,28.5C 60.6623,36.5428 57.8289,44.8762 55.5,53.5C 56.545,55.2049 57.8783,56.7049 59.5,58C 57.8107,57.8657 56.144,57.3657 54.5,56.5 Z"/></g>
<g><path style="opacity:1" fill="#ad9447" d="M 45.5,52.5 C 45.1667,52.5 44.8333,52.5 44.5,52.5C 44.7827,48.0302 46.2827,44.0302 49,40.5C 48.3343,44.6619 47.1676,48.6619 45.5,52.5 Z"/></g>
<g><path style="opacity:1" fill="#998c66" d="M 18.5,39.5 C 17.2913,43.5885 15.7913,47.5885 14,51.5C 13.477,56.3617 12.6437,61.0284 11.5,65.5C 11.5,63.1667 11.5,60.8333 11.5,58.5C 12.0813,51.4129 14.4146,45.0795 18.5,39.5 Z"/></g>
<g><path style="opacity:1" fill="#8b7d67" d="M 67.5,57.5 C 67.6567,56.1266 67.49,54.7932 67,53.5C 64.0075,60.155 60.5075,66.4884 56.5,72.5C 58.5212,73.8545 60.1879,75.5212 61.5,77.5C 61.5654,77.9382 61.3988,78.2716 61,78.5C 59.2845,75.6026 56.7845,74.2693 53.5,74.5C 59.8583,65.1206 65.1916,55.1206 69.5,44.5C 69.8333,44.8333 70.1667,45.1667 70.5,45.5C 69.984,49.7393 68.984,53.7393 67.5,57.5 Z"/></g>
<g><path style="opacity:1" fill="#b0994f" d="M 100.5,50.5 C 101.775,53.3962 101.775,56.3962 100.5,59.5C 99.4062,58.4183 98.0729,57.7517 96.5,57.5C 95.2867,57.7472 94.62,58.4138 94.5,59.5C 94.1667,59.5 93.8333,59.5 93.5,59.5C 93.5,58.1667 93.5,56.8333 93.5,55.5C 95.9363,55.317 98.103,55.9837 100,57.5C 100.497,55.1902 100.663,52.8568 100.5,50.5 Z"/></g>
<g><path style="opacity:1" fill="#a78f46" d="M 115.5,61.5 C 114.662,61.8417 114.328,62.5084 114.5,63.5C 114.167,63.5 113.833,63.5 113.5,63.5C 115.023,58.1943 114.69,53.0276 112.5,48C 113.744,47.5439 114.577,48.0439 115,49.5C 115.499,53.4862 115.666,57.4862 115.5,61.5 Z"/></g>
<g><path style="opacity:0.878" fill="#5b5a5a" d="M 5.5,44.5 C 4.02213,48.954 4.6888,53.1207 7.5,57C 6.6178,60.4408 6.28446,63.9408 6.5,67.5C 6.73731,68.791 6.40397,69.791 5.5,70.5C 5.20001,65.9014 5.53335,61.4014 6.5,57C 3.15449,52.8399 2.82115,48.6733 5.5,44.5 Z"/></g>
<g><path style="opacity:1" fill="#6f6359" d="M 53.5,54.5 C 54.3382,54.8417 54.6716,55.5084 54.5,56.5C 53.9759,58.3057 53.3092,59.9724 52.5,61.5C 52.6716,60.5084 52.3382,59.8417 51.5,59.5C 51.8925,57.7162 52.5592,56.0495 53.5,54.5 Z"/></g>
<g><path style="opacity:1" fill="#958463" d="M 104.5,56.5 C 107.098,61.5631 108.765,66.8965 109.5,72.5C 108.652,73.625 107.652,73.625 106.5,72.5C 106.635,67.0472 105.968,61.7139 104.5,56.5 Z"/></g>
<g><path style="opacity:1" fill="#89785c" d="M 67.5,57.5 C 67.5905,60.1522 66.9238,62.4855 65.5,64.5C 65.4095,61.8478 66.0762,59.5145 67.5,57.5 Z"/></g>
<g><path style="opacity:1" fill="#827251" d="M 51.5,59.5 C 50.9213,62.3311 49.588,64.6644 47.5,66.5C 48.0787,63.6689 49.412,61.3356 51.5,59.5 Z"/></g>
<g><path style="opacity:1" fill="#e7d16f" d="M 100.5,59.5 C 97.0119,75.0374 95.0119,75.0374 94.5,59.5C 94.62,58.4138 95.2867,57.7472 96.5,57.5C 98.0729,57.7517 99.4062,58.4183 100.5,59.5 Z"/></g>
<g><path style="opacity:1" fill="#f5e9e1" d="M 104.5,56.5 C 105.968,61.7139 106.635,67.0472 106.5,72.5C 103.797,72.0481 101.13,71.3815 98.5,70.5C 101.243,65.5299 102.743,60.1966 103,54.5C 103.278,55.4158 103.778,56.0825 104.5,56.5 Z"/></g>
<g><path style="opacity:1" fill="#bca24f" d="M 39.5,63.5 C 39.5,64.1667 39.5,64.8333 39.5,65.5C 38.5,66.1667 37.5,66.8333 36.5,67.5C 36.2079,61.7099 36.8746,56.0432 38.5,50.5C 38.2915,54.846 38.6249,59.1793 39.5,63.5 Z"/></g>
<g><path style="opacity:1" fill="#b49a4c" d="M 17.5,76.5 C 16.8333,76.5 16.1667,76.5 15.5,76.5C 16.2182,69.1133 17.3848,61.7799 19,54.5C 18.8941,61.837 18.3941,69.1704 17.5,76.5 Z"/></g>
<g><path style="opacity:0.922" fill="#7e7b6f" d="M 137.5,61.5 C 140.167,63.8333 140.167,66.1667 137.5,68.5C 137.5,66.1667 137.5,63.8333 137.5,61.5 Z"/></g>
<g><path style="opacity:0.725" fill="#645b40" d="M 135.5,69.5 C 135.44,70.0431 135.107,70.3764 134.5,70.5C 133.515,68.228 132.681,65.8947 132,63.5C 131.502,66.8168 131.335,70.1501 131.5,73.5C 131.167,73.5 130.833,73.5 130.5,73.5C 130.594,65.4085 130.094,57.4085 129,49.5C 130.88,56.3067 133.047,62.9733 135.5,69.5 Z"/></g>
<g><path style="opacity:1" fill="#efe7e5" d="M 51.5,59.5 C 52.3382,59.8417 52.6716,60.5084 52.5,61.5C 52.5,61.8333 52.5,62.1667 52.5,62.5C 50.9605,64.8383 50.2938,67.5049 50.5,70.5C 46.8141,70.87 45.8141,69.5367 47.5,66.5C 49.588,64.6644 50.9213,62.3311 51.5,59.5 Z"/></g>
<g><path style="opacity:1" fill="#e7dbd8" d="M 40.5,72.5 C 39.5,72.5 38.5,72.5 37.5,72.5C 37.4003,69.8915 38.0669,67.5582 39.5,65.5C 40.5585,64.3998 41.3918,63.0664 42,61.5C 42.1525,65.2523 41.6525,68.919 40.5,72.5 Z"/></g>
<g><path style="opacity:1" fill="#8e816e" d="M 44.5,52.5 C 44.8333,52.5 45.1667,52.5 45.5,52.5C 44.113,58.8284 43.2797,65.1617 43,71.5C 44.0491,69.3825 45.5491,67.7158 47.5,66.5C 45.8141,69.5367 46.8141,70.87 50.5,70.5C 50.2938,67.5049 50.9605,64.8383 52.5,62.5C 52.3064,66.7553 51.9731,70.7553 51.5,74.5C 51.1667,74.5 50.8333,74.5 50.5,74.5C 47.6627,72.5977 44.3293,71.931 40.5,72.5C 41.6525,68.919 42.1525,65.2523 42,61.5C 41.3918,63.0664 40.5585,64.3998 39.5,65.5C 39.5,64.8333 39.5,64.1667 39.5,63.5C 41.4407,59.9523 43.1074,56.2857 44.5,52.5 Z"/></g>
<g><path style="opacity:1" fill="#b2b1b5" d="M 11.5,58.5 C 11.5,60.8333 11.5,63.1667 11.5,65.5C 11.5,65.8333 11.5,66.1667 11.5,66.5C 10.8343,69.0277 10.1676,71.6944 9.5,74.5C 8.89333,74.3764 8.55999,74.0431 8.5,73.5C 9.41856,68.4864 10.4186,63.4864 11.5,58.5 Z"/></g>
<g><path style="opacity:1" fill="#6e6150" d="M 65.5,66.5 C 65.5,67.1667 65.8333,67.5 66.5,67.5C 65.7907,70.5899 64.124,71.9232 61.5,71.5C 62.8872,69.79 64.2206,68.1233 65.5,66.5 Z"/></g>
<g><path style="opacity:1" fill="#f3d778" d="M 139.5,69.5 C 144.874,68.9369 149.041,70.9369 152,75.5C 151.791,84.0595 147.291,87.5595 138.5,86C 131.671,80.0031 132.004,74.5031 139.5,69.5 Z"/></g>
<g><path style="opacity:1" fill="#efeff0" d="M 40.5,72.5 C 44.3293,71.931 47.6627,72.5977 50.5,74.5C 45.5777,75.4281 43.2443,78.4281 43.5,83.5C 43.5274,88.3583 46.0274,90.6917 51,90.5C 57.3911,89.069 59.7245,85.069 58,78.5C 56.3333,77.2668 54.8333,75.9335 53.5,74.5C 56.7845,74.2693 59.2845,75.6026 61,78.5C 61.3988,78.2716 61.5654,77.9382 61.5,77.5C 62.3382,77.8417 62.6716,78.5084 62.5,79.5C 60.3396,91.5871 53.0063,96.2538 40.5,93.5C 39.5,93.5 38.5,93.5 37.5,93.5C 37.3338,87.1579 37.5005,80.8246 38,74.5C 38.9947,73.9341 39.828,73.2674 40.5,72.5 Z"/></g>
<g><path style="opacity:1" fill="#928880" d="M 104.5,56.5 C 103.778,56.0825 103.278,55.4158 103,54.5C 102.743,60.1966 101.243,65.5299 98.5,70.5C 101.13,71.3815 103.797,72.0481 106.5,72.5C 107.652,73.625 108.652,73.625 109.5,72.5C 111.108,69.6179 112.441,66.6179 113.5,63.5C 113.833,63.5 114.167,63.5 114.5,63.5C 115.167,63.5 115.5,63.8333 115.5,64.5C 113.608,67.2765 111.941,70.2765 110.5,73.5C 113.553,75.3917 115.719,78.0584 117,81.5C 118.424,88.7586 115.59,93.592 108.5,96C 100.864,97.8945 94.3637,96.0612 89,90.5C 84.5303,82.7776 86.197,76.7776 94,72.5C 93.923,68.1951 93.7563,63.8618 93.5,59.5C 93.8333,59.5 94.1667,59.5 94.5,59.5C 95.0119,75.0374 97.0119,75.0374 100.5,59.5C 101.775,56.3962 101.775,53.3962 100.5,50.5C 100.369,49.7611 100.536,49.0944 101,48.5C 103.352,50.674 104.519,53.3407 104.5,56.5 Z"/></g>
<g><path style="opacity:1" fill="#f1f2f2" d="M 95.5,73.5 C 103.581,71.812 110.081,74.1453 115,80.5C 117.002,86.6849 115.169,91.1849 109.5,94C 103.574,95.1102 97.9077,94.4436 92.5,92C 88.8724,88.2075 87.7057,83.7075 89,78.5C 90.9651,76.4497 93.1318,74.783 95.5,73.5 Z"/></g>
<g><path style="opacity:1" fill="#1b1514" d="M 50.5,74.5 C 50.8333,74.5 51.1667,74.5 51.5,74.5C 52.1667,74.5 52.8333,74.5 53.5,74.5C 54.8333,75.9335 56.3333,77.2668 58,78.5C 59.7245,85.069 57.3911,89.069 51,90.5C 46.0274,90.6917 43.5274,88.3583 43.5,83.5C 43.2443,78.4281 45.5777,75.4281 50.5,74.5 Z"/></g>
<g><path style="opacity:1" fill="#c99955" d="M 121.5,73.5 C 123.018,75.6807 124.018,78.1807 124.5,81C 124.141,83.2961 123.141,85.1295 121.5,86.5C 121.5,82.1667 121.5,77.8333 121.5,73.5 Z"/></g>
<g><path style="opacity:1" fill="#b59c4b" d="M 36.5,73.5 C 36.5,80.1667 36.5,86.8333 36.5,93.5C 33.8878,92.7225 32.0545,91.0559 31,88.5C 28.962,81.9194 30.7953,76.9194 36.5,73.5 Z"/></g>
<g><path style="opacity:1" fill="#f6dd7a" d="M 34.5,76.5 C 35.6484,80.9811 35.8151,85.6478 35,90.5C 30.523,85.9768 30.3563,81.3102 34.5,76.5 Z"/></g>
<g><path style="opacity:1" fill="#d59f5e" d="M 11.5,73.5 C 12.2362,75.2294 13.5695,76.2294 15.5,76.5C 15.5,76.8333 15.5,77.1667 15.5,77.5C 15.1667,77.5 14.8333,77.5 14.5,77.5C 12.8267,78.343 11.66,79.6763 11,81.5C 10.6667,85.1667 10.3333,88.8333 10,92.5C 7.44595,86.399 6.44595,80.0657 7,73.5C 9.307,78.4721 10.807,78.4721 11.5,73.5 Z"/></g>
<g><path style="opacity:1" fill="#4f1b18" d="M 51.5,78.5 C 56.7875,80.7171 56.6208,83.0504 51,85.5C 49.5,85.3333 48.6667,84.5 48.5,83C 48.9567,81.0598 49.9567,79.5598 51.5,78.5 Z"/></g>
<g><path style="opacity:0.816" fill="#6e5d4a" d="M 11.5,66.5 C 11.5,68.8333 11.5,71.1667 11.5,73.5C 10.807,78.4721 9.307,78.4721 7,73.5C 6.44595,80.0657 7.44595,86.399 10,92.5C 10.3333,88.8333 10.6667,85.1667 11,81.5C 11.66,79.6763 12.8267,78.343 14.5,77.5C 14.5,77.8333 14.5,78.1667 14.5,78.5C 10.5015,86.9037 10.8348,95.2371 15.5,103.5C 15.8417,104.338 16.5084,104.672 17.5,104.5C 18.9377,112.438 19.9377,120.438 20.5,128.5C 18.6871,121.366 17.1871,114.033 16,106.5C 7.94415,95.8321 4.44415,83.8321 5.5,70.5C 6.40397,69.791 6.73731,68.791 6.5,67.5C 7.4582,69.3024 8.12487,71.3024 8.5,73.5C 8.55999,74.0431 8.89333,74.3764 9.5,74.5C 10.1676,71.6944 10.8343,69.0277 11.5,66.5 Z"/></g>
<g><path style="opacity:1" fill="#f5e7de" d="M 14.5,78.5 C 15.1667,85.5 15.8333,92.5 16.5,99.5C 16.7678,101.099 16.4345,102.432 15.5,103.5C 10.8348,95.2371 10.5015,86.9037 14.5,78.5 Z"/></g>
<g><path style="opacity:1" fill="#b1a2a1" d="M 14.5,78.5 C 14.5,78.1667 14.5,77.8333 14.5,77.5C 14.8333,77.5 15.1667,77.5 15.5,77.5C 16.4916,84.6476 16.825,91.9809 16.5,99.5C 15.8333,92.5 15.1667,85.5 14.5,78.5 Z"/></g>
<g><path style="opacity:1" fill="#8e7e51" d="M 15.5,77.5 C 15.5,77.1667 15.5,76.8333 15.5,76.5C 16.1667,76.5 16.8333,76.5 17.5,76.5C 17.5,85.8333 17.5,95.1667 17.5,104.5C 16.5084,104.672 15.8417,104.338 15.5,103.5C 16.4345,102.432 16.7678,101.099 16.5,99.5C 16.825,91.9809 16.4916,84.6476 15.5,77.5 Z"/></g>
<g><path style="opacity:1" fill="#1c1413" d="M 103.5,76.5 C 111.201,76.3622 114.367,80.0289 113,87.5C 109.468,93.2904 105.135,93.957 100,89.5C 98.5394,84.3265 99.7061,79.9932 103.5,76.5 Z"/></g>
<g><path style="opacity:1" fill="#4d1a17" d="M 104.5,79.5 C 109.984,79.4809 111.65,81.9809 109.5,87C 103.593,87.7465 101.927,85.2465 104.5,79.5 Z"/></g>
<g><path style="opacity:1" fill="#856f57" d="M 115.5,61.5 C 118.025,65.2165 120.025,69.2165 121.5,73.5C 121.5,77.8333 121.5,82.1667 121.5,86.5C 121.093,90.203 120.426,93.8697 119.5,97.5C 123.612,109.615 119.612,117.281 107.5,120.5C 112.373,118.467 116.206,115.134 119,110.5C 118.875,97.1868 118.875,83.8535 119,70.5C 118.074,68.3083 116.907,66.3083 115.5,64.5C 115.5,63.8333 115.167,63.5 114.5,63.5C 114.328,62.5084 114.662,61.8417 115.5,61.5 Z"/></g>
<g><path style="opacity:1" fill="#f4f3d2" d="M 130.5,74.5 C 130.5,80.8333 130.5,87.1667 130.5,93.5C 129.833,88.5 129.167,83.5 128.5,78.5C 128.5,78.1667 128.5,77.8333 128.5,77.5C 128.932,76.2905 129.599,75.2905 130.5,74.5 Z"/></g>
<g><path style="opacity:0.961" fill="#b2ac94" d="M 130.5,73.5 C 130.833,73.5 131.167,73.5 131.5,73.5C 132.482,76.9619 132.815,80.6286 132.5,84.5C 131.833,102.167 131.167,119.833 130.5,137.5C 130.5,122.833 130.5,108.167 130.5,93.5C 130.5,87.1667 130.5,80.8333 130.5,74.5C 130.5,74.1667 130.5,73.8333 130.5,73.5 Z"/></g>
<g><path style="opacity:1" fill="#97918d" d="M 62.5,79.5 C 63.2807,89.048 58.9474,94.3814 49.5,95.5C 46.5,94.8333 43.5,94.1667 40.5,93.5C 53.0063,96.2538 60.3396,91.5871 62.5,79.5 Z"/></g>
<g><path style="opacity:1" fill="#b79e4e" d="M 128.5,77.5 C 128.5,77.8333 128.5,78.1667 128.5,78.5C 128.008,97.1811 126.842,115.848 125,134.5C 124.333,135.167 123.667,135.833 123,136.5C 122.333,134.5 121.667,132.5 121,130.5C 119.804,135.223 117.804,139.557 115,143.5C 114.501,149.491 114.334,155.491 114.5,161.5C 114.167,161.5 113.833,161.5 113.5,161.5C 113.822,155.642 113.489,149.975 112.5,144.5C 116.576,138.345 119.576,131.679 121.5,124.5C 122.281,125.729 122.781,127.062 123,128.5C 123.333,127.833 123.667,127.167 124,126.5C 125.188,111.531 125.855,96.5314 126,81.5C 126.608,79.9336 127.442,78.6002 128.5,77.5 Z"/></g>
<g><path style="opacity:1" fill="#877a60" d="M 39.5,65.5 C 38.0669,67.5582 37.4003,69.8915 37.5,72.5C 38.5,72.5 39.5,72.5 40.5,72.5C 39.828,73.2674 38.9947,73.9341 38,74.5C 37.5005,80.8246 37.3338,87.1579 37.5,93.5C 38.5,93.5 39.5,93.5 40.5,93.5C 43.5,94.1667 46.5,94.8333 49.5,95.5C 45.7604,95.7592 42.0938,95.4259 38.5,94.5C 37.8836,102.135 37.8836,109.802 38.5,117.5C 38.5,119.833 38.5,122.167 38.5,124.5C 37.2199,114.357 36.5533,104.024 36.5,93.5C 36.5,86.8333 36.5,80.1667 36.5,73.5C 36.5,71.5 36.5,69.5 36.5,67.5C 37.5,66.8333 38.5,66.1667 39.5,65.5 Z"/></g>
<g><path style="opacity:1" fill="#a0857d" d="M 70.5,117.5 C 73.1213,118.121 74.788,119.788 75.5,122.5C 72.9135,123.48 70.2469,123.813 67.5,123.5C 67.461,120.911 68.461,118.911 70.5,117.5 Z"/></g>
<g><path style="opacity:0.048" fill="#f9f9f9" d="M 111.5,146.5 C 112.487,151.305 112.821,156.305 112.5,161.5C 111.5,161.5 110.5,161.5 109.5,161.5C 109.616,158.14 109.949,154.807 110.5,151.5C 108.856,151.714 107.356,151.38 106,150.5C 105.055,142.107 103.722,133.774 102,125.5C 98.876,126.561 95.7093,127.561 92.5,128.5C 94.2136,132.166 96.3803,135.5 99,138.5C 101.997,145.992 104.497,153.659 106.5,161.5C 105.833,161.5 105.167,161.5 104.5,161.5C 101.719,154.269 99.2187,146.936 97,139.5C 94.9782,138.198 93.4782,136.532 92.5,134.5C 90.7332,128.316 87.7332,127.816 83.5,133C 82.5,133.667 81.5,133.667 80.5,133C 79.87,131.108 78.87,129.441 77.5,128C 86.551,127.057 95.3844,125.223 104,122.5C 105.388,131.492 106.555,140.492 107.5,149.5C 109.973,149.912 111.306,148.912 111.5,146.5 Z"/></g>
<g><path style="opacity:0.594" fill="#5d5b57" d="M 132.5,84.5 C 132.932,110.206 132.265,135.872 130.5,161.5C 129.833,161.5 129.167,161.5 128.5,161.5C 129.661,153.545 130.328,145.545 130.5,137.5C 131.167,119.833 131.833,102.167 132.5,84.5 Z"/></g>
<g><path style="opacity:0.996" fill="#f5db79" d="M 128.5,78.5 C 129.167,83.5 129.833,88.5 130.5,93.5C 130.5,108.167 130.5,122.833 130.5,137.5C 130.328,145.545 129.661,153.545 128.5,161.5C 123.833,161.5 119.167,161.5 114.5,161.5C 114.334,155.491 114.501,149.491 115,143.5C 117.804,139.557 119.804,135.223 121,130.5C 121.667,132.5 122.333,134.5 123,136.5C 123.667,135.833 124.333,135.167 125,134.5C 126.842,115.848 128.008,97.1811 128.5,78.5 Z"/></g>
<g><path style="opacity:0.937" fill="#746b64" d="M 38.5,124.5 C 38.5,122.167 38.5,119.833 38.5,117.5C 46.2042,120.901 54.2042,123.401 62.5,125C 64.7085,125.936 66.0418,127.602 66.5,130C 71.5394,132.862 74.8728,131.528 76.5,126C 87.0431,125.243 97.3765,123.41 107.5,120.5C 106.47,121.552 105.803,122.886 105.5,124.5C 106.867,132.283 108.367,139.95 110,147.5C 110.383,146.944 110.883,146.611 111.5,146.5C 111.306,148.912 109.973,149.912 107.5,149.5C 106.555,140.492 105.388,131.492 104,122.5C 95.3844,125.223 86.551,127.057 77.5,128C 78.87,129.441 79.87,131.108 80.5,133C 81.5,133.667 82.5,133.667 83.5,133C 87.7332,127.816 90.7332,128.316 92.5,134.5C 90.1667,134.5 87.8333,134.5 85.5,134.5C 82.8915,134.4 80.5582,135.067 78.5,136.5C 79.3285,134.067 78.8285,131.733 77,129.5C 75.8978,130.949 74.7311,132.282 73.5,133.5C 72.391,133.557 71.391,133.89 70.5,134.5C 67.6689,133.195 65.3356,131.195 63.5,128.5C 62.1667,130.167 62.1667,131.833 63.5,133.5C 64.7387,133.942 65.7387,134.609 66.5,135.5C 65.5,135.5 64.5,135.5 63.5,135.5C 60.5701,134.701 57.5701,134.368 54.5,134.5C 54.3259,136.861 53.9926,139.194 53.5,141.5C 53.5,143.833 53.5,146.167 53.5,148.5C 52.548,143.644 52.3813,138.644 53,133.5C 51.6667,132.167 50.3333,132.167 49,133.5C 48.5045,135.473 48.3379,137.473 48.5,139.5C 48.1667,139.5 47.8333,139.5 47.5,139.5C 47.2739,136.751 47.6072,134.084 48.5,131.5C 51.8788,129.144 55.5455,127.311 59.5,126C 57.0687,125.748 54.7354,126.248 52.5,127.5C 51.269,126.349 51.269,125.183 52.5,124C 48.2405,122.692 44.0738,121.192 40,119.5C 39.6272,126.898 40.1272,134.231 41.5,141.5C 40.5,142.833 39.5,142.833 38.5,141.5C 37.3906,139.615 36.5573,137.615 36,135.5C 35.7684,139.826 36.6017,143.992 38.5,148C 36.5813,149.417 34.9147,148.917 33.5,146.5C 34.7666,147.087 35.7666,147.087 36.5,146.5C 33.2005,137.046 32.2005,127.379 33.5,117.5C 34.5852,124.266 36.0852,130.933 38,137.5C 38.499,133.179 38.6657,128.846 38.5,124.5 Z M 41.5,123.5 C 41.8411,129.325 42.6745,134.991 44,140.5C 45.0365,137.247 45.7031,133.914 46,130.5C 47.298,129.44 48.4647,128.274 49.5,127C 47.3531,124.78 44.6864,123.613 41.5,123.5 Z"/></g>
<g><path style="opacity:1" fill="#e9ecec" d="M 70.5,134.5 C 70.6716,135.492 70.3382,136.158 69.5,136.5C 68.609,135.89 67.609,135.557 66.5,135.5C 65.7387,134.609 64.7387,133.942 63.5,133.5C 62.1667,131.833 62.1667,130.167 63.5,128.5C 65.3356,131.195 67.6689,133.195 70.5,134.5 Z"/></g>
<g><path style="opacity:1" fill="#eceded" d="M 78.5,136.5 C 77.609,137.11 76.609,137.443 75.5,137.5C 74.3995,136.395 73.7329,135.062 73.5,133.5C 74.7311,132.282 75.8978,130.949 77,129.5C 78.8285,131.733 79.3285,134.067 78.5,136.5 Z"/></g>
<g><path style="opacity:0.113" fill="#fafafa" d="M 59.5,128.5 C 61.6516,129.077 61.985,130.244 60.5,132C 58.1667,132.667 55.8333,132.667 53.5,132C 55.6181,130.918 57.6181,129.751 59.5,128.5 Z"/></g>
<g><path style="opacity:1" fill="#c6c9c9" d="M 86.5,131.5 C 87.9778,131.238 89.3112,131.571 90.5,132.5C 88.9255,133.631 87.2588,133.798 85.5,133C 86.056,132.617 86.3893,132.117 86.5,131.5 Z"/></g>
<g><path style="opacity:0.949" fill="#8b7f55" d="M 20.5,128.5 C 21.6005,130.277 22.4338,132.277 23,134.5C 23.4643,133.906 23.631,133.239 23.5,132.5C 24.8333,134.5 24.8333,136.5 23.5,138.5C 21.5902,135.548 20.5902,132.214 20.5,128.5 Z"/></g>
<g><path style="opacity:1" fill="#2f2e2e" d="M 73.5,133.5 C 73.7329,135.062 74.3995,136.395 75.5,137.5C 74.0695,137.421 72.7362,137.754 71.5,138.5C 70.4777,138.145 69.811,137.478 69.5,136.5C 70.3382,136.158 70.6716,135.492 70.5,134.5C 71.391,133.89 72.391,133.557 73.5,133.5 Z"/></g>
<g><path style="opacity:1" fill="#ea8a9a" d="M 63.5,135.5 C 63.7035,137.39 63.0368,138.89 61.5,140C 58.9865,141.252 56.3198,141.752 53.5,141.5C 53.9926,139.194 54.3259,136.861 54.5,134.5C 57.5701,134.368 60.5701,134.701 63.5,135.5 Z"/></g>
<g><path style="opacity:1" fill="#e88998" d="M 85.5,134.5 C 87.8333,134.5 90.1667,134.5 92.5,134.5C 92.2322,136.099 92.5655,137.432 93.5,138.5C 93.5,139.833 93.5,141.167 93.5,142.5C 88.5433,142.21 85.8766,139.543 85.5,134.5 Z"/></g>
<g><path style="opacity:1" fill="#cb445a" d="M 85.5,134.5 C 85.8766,139.543 88.5433,142.21 93.5,142.5C 93.815,146.371 93.4816,150.038 92.5,153.5C 90.8008,153.66 89.1341,153.494 87.5,153C 83.6969,151.345 80.0302,149.511 76.5,147.5C 75.1667,147.5 73.8333,147.5 72.5,147.5C 72.1984,150.059 72.5318,152.393 73.5,154.5C 73.5,156.833 73.5,159.167 73.5,161.5C 69.1667,161.5 64.8333,161.5 60.5,161.5C 60.5,159.833 60.5,158.167 60.5,156.5C 55.4373,156.367 53.1039,153.7 53.5,148.5C 53.5,146.167 53.5,143.833 53.5,141.5C 56.3198,141.752 58.9865,141.252 61.5,140C 63.0368,138.89 63.7035,137.39 63.5,135.5C 64.5,135.5 65.5,135.5 66.5,135.5C 67.609,135.557 68.609,135.89 69.5,136.5C 69.811,137.478 70.4777,138.145 71.5,138.5C 72.7362,137.754 74.0695,137.421 75.5,137.5C 76.609,137.443 77.609,137.11 78.5,136.5C 80.5582,135.067 82.8915,134.4 85.5,134.5 Z"/></g>
<g><path style="opacity:1" fill="#575244" d="M 26.5,136.5 C 26.0945,138.405 25.7611,140.405 25.5,142.5C 23.8888,141.68 23.2222,140.346 23.5,138.5C 24.8333,136.5 24.8333,134.5 23.5,132.5C 23.3433,131.127 23.51,129.793 24,128.5C 25.3409,131.022 26.1743,133.689 26.5,136.5 Z"/></g>
<g><path style="opacity:0.525" fill="#665f4c" d="M 27.5,138.5 C 29.3264,140.147 30.6597,142.147 31.5,144.5C 29.1782,143.198 27.8449,141.198 27.5,138.5 Z"/></g>
<g><path style="opacity:1" fill="#3f3e3f" d="M 92.5,134.5 C 93.4782,136.532 94.9782,138.198 97,139.5C 99.2187,146.936 101.719,154.269 104.5,161.5C 101.5,161.5 98.5,161.5 95.5,161.5C 95.4809,159.94 95.1476,158.44 94.5,157C 97.0525,153.945 97.0525,150.945 94.5,148C 95.6105,145.263 95.7772,142.429 95,139.5C 94.6174,138.944 94.1174,138.611 93.5,138.5C 92.5655,137.432 92.2322,136.099 92.5,134.5 Z"/></g>
<g><path style="opacity:0.634" fill="#58544a" d="M 112.5,144.5 C 113.489,149.975 113.822,155.642 113.5,161.5C 113.167,161.5 112.833,161.5 112.5,161.5C 112.821,156.305 112.487,151.305 111.5,146.5C 111.833,145.833 112.167,145.167 112.5,144.5 Z"/></g>
<g><path style="opacity:1" fill="#e88c9a" d="M 62.5,148.5 C 64.924,148.192 67.2573,148.526 69.5,149.5C 67.0101,152.225 64.0101,154.225 60.5,155.5C 59.6333,152.857 60.3,150.523 62.5,148.5 Z"/></g>
<g><path style="opacity:1" fill="#39393a" d="M 47.5,139.5 C 47.8333,139.5 48.1667,139.5 48.5,139.5C 49.6448,143.375 50.9781,147.208 52.5,151C 51.9755,154.426 51.9755,157.926 52.5,161.5C 47.5,161.5 42.5,161.5 37.5,161.5C 39.7564,153.656 43.0897,146.322 47.5,139.5 Z"/></g>
<g><path style="opacity:1" fill="#2c2424" d="M 76.5,147.5 C 77.2341,148.708 77.5674,150.041 77.5,151.5C 77.5,151.833 77.5,152.167 77.5,152.5C 75.5168,152.157 74.1834,152.824 73.5,154.5C 72.5318,152.393 72.1984,150.059 72.5,147.5C 73.8333,147.5 75.1667,147.5 76.5,147.5 Z"/></g>
<g><path style="opacity:1" fill="#d0d0d0" d="M 93.5,138.5 C 94.1174,138.611 94.6174,138.944 95,139.5C 95.7772,142.429 95.6105,145.263 94.5,148C 97.0525,150.945 97.0525,153.945 94.5,157C 95.1476,158.44 95.4809,159.94 95.5,161.5C 91.8333,161.5 88.1667,161.5 84.5,161.5C 85.1667,160.167 86.1667,159.167 87.5,158.5C 89.1042,157.713 89.7709,156.38 89.5,154.5C 90.791,154.737 91.791,154.404 92.5,153.5C 93.4816,150.038 93.815,146.371 93.5,142.5C 93.5,141.167 93.5,139.833 93.5,138.5 Z"/></g>
<g><path style="opacity:1" fill="#982e3b" d="M 76.5,147.5 C 80.0302,149.511 83.6969,151.345 87.5,153C 89.1341,153.494 90.8008,153.66 92.5,153.5C 91.791,154.404 90.791,154.737 89.5,154.5C 89.7709,156.38 89.1042,157.713 87.5,158.5C 87.762,157.022 87.4287,155.689 86.5,154.5C 83.9206,153.294 81.4206,151.961 79,150.5C 78.6012,150.728 78.4346,151.062 78.5,151.5C 78.1667,151.5 77.8333,151.5 77.5,151.5C 77.5674,150.041 77.2341,148.708 76.5,147.5 Z"/></g>
<g><path style="opacity:1" fill="#e0e1e1" d="M 53.5,148.5 C 53.1039,153.7 55.4373,156.367 60.5,156.5C 60.5,158.167 60.5,159.833 60.5,161.5C 57.8333,161.5 55.1667,161.5 52.5,161.5C 51.9755,157.926 51.9755,154.426 52.5,151C 50.9781,147.208 49.6448,143.375 48.5,139.5C 48.3379,137.473 48.5045,135.473 49,133.5C 50.3333,132.167 51.6667,132.167 53,133.5C 52.3813,138.644 52.548,143.644 53.5,148.5 Z"/></g>
<g><path style="opacity:1" fill="#a4aaa7" d="M 77.5,152.5 C 77.5,154.167 77.5,155.833 77.5,157.5C 76.8386,156.282 76.1719,154.949 75.5,153.5C 74.52,156.086 74.1866,158.753 74.5,161.5C 74.1667,161.5 73.8333,161.5 73.5,161.5C 73.5,159.167 73.5,156.833 73.5,154.5C 74.1834,152.824 75.5168,152.157 77.5,152.5 Z"/></g>
<g><path style="opacity:0.986" fill="#f7fbfa" d="M 77.5,157.5 C 77.5,158.833 77.5,160.167 77.5,161.5C 76.5,161.5 75.5,161.5 74.5,161.5C 74.1866,158.753 74.52,156.086 75.5,153.5C 76.1719,154.949 76.8386,156.282 77.5,157.5 Z"/></g>
<g><path style="opacity:1" fill="#d14c61" d="M 87.5,158.5 C 86.1667,159.167 85.1667,160.167 84.5,161.5C 82.8333,161.5 81.1667,161.5 79.5,161.5C 79.3841,158.14 79.0508,154.807 78.5,151.5C 78.4346,151.062 78.6012,150.728 79,150.5C 81.4206,151.961 83.9206,153.294 86.5,154.5C 87.4287,155.689 87.762,157.022 87.5,158.5 Z"/></g>
<g><path style="opacity:1" fill="#99646c" d="M 77.5,151.5 C 77.8333,151.5 78.1667,151.5 78.5,151.5C 79.0508,154.807 79.3841,158.14 79.5,161.5C 78.8333,161.5 78.1667,161.5 77.5,161.5C 77.5,160.167 77.5,158.833 77.5,157.5C 77.5,155.833 77.5,154.167 77.5,152.5C 77.5,152.167 77.5,151.833 77.5,151.5 Z"/></g>
</svg>
